<svg version="1.1" id="Layer_1" xmlns="http://www.w3.org/2000/svg" xmlns:xlink="http://www.w3.org/1999/xlink" viewBox="0 0 32.00 32.00" enable-background="new 0 0 32 32" xml:space="preserve" fill="#000000" stroke="#000000" stroke-width="0.00032"><g id="SVGRepo_bgCarrier" stroke-width="0"></g><g id="SVGRepo_tracerCarrier" stroke-linecap="round" stroke-linejoin="round" stroke="#CCCCCC" stroke-width="0.128"></g><g id="SVGRepo_iconCarrier"> <g> <path fill="#ffffff" d="M16,0C7.178,0,0,7.178,0,16s7.178,16,16,16s16-7.178,16-16S24.822,0,16,0z M16,31C7.729,31,1,24.271,1,16 S7.729,1,16,1s15,6.729,15,15S24.271,31,16,31z"></path> <path fill="#ffffff" d="M23.5,16H17V8.5C17,8.224,16.776,8,16.5,8S16,8.224,16,8.5V16H8.5C8.224,16,8,16.224,8,16.5 S8.224,17,8.5,17H16v6.5c0,0.276,0.224,0.5,0.5,0.5s0.5-0.224,0.5-0.5V17h6.5c0.276,0,0.5-0.224,0.5-0.5S23.776,16,23.5,16z"></path> </g> </g></svg>